<svg xmlns="http://www.w3.org/2000/svg" xmlns:xlink="http://www.w3.org/1999/xlink" width="418.968" height="370.189" viewBox="0 0 418.968 370.189">
  <defs>
    <filter id="Path_1" x="234.606" y="160.763" width="48.046" height="54.965" filterUnits="userSpaceOnUse">
      <feOffset dy="10" input="SourceAlpha"/>
      <feGaussianBlur stdDeviation="6.5" result="blur"/>
      <feFlood flood-opacity="0.161"/>
      <feComposite operator="in" in2="blur"/>
      <feComposite in="SourceGraphic"/>
    </filter>
    <filter id="Path_2" x="220.402" y="114.529" width="44.017" height="44.009" filterUnits="userSpaceOnUse">
      <feOffset dy="10" input="SourceAlpha"/>
      <feGaussianBlur stdDeviation="6.5" result="blur-2"/>
      <feFlood flood-opacity="0.161"/>
      <feComposite operator="in" in2="blur-2"/>
      <feComposite in="SourceGraphic"/>
    </filter>
    <filter id="Path_3" x="233.867" y="114.529" width="44.017" height="44.009" filterUnits="userSpaceOnUse">
      <feOffset dy="10" input="SourceAlpha"/>
      <feGaussianBlur stdDeviation="6.5" result="blur-3"/>
      <feFlood flood-opacity="0.161"/>
      <feComposite operator="in" in2="blur-3"/>
      <feComposite in="SourceGraphic"/>
    </filter>
    <filter id="Path_4" x="206.913" y="114.529" width="44.017" height="44.009" filterUnits="userSpaceOnUse">
      <feOffset dy="10" input="SourceAlpha"/>
      <feGaussianBlur stdDeviation="6.5" result="blur-4"/>
      <feFlood flood-opacity="0.161"/>
      <feComposite operator="in" in2="blur-4"/>
      <feComposite in="SourceGraphic"/>
    </filter>
    <filter id="Path_5" x="141.083" y="114.529" width="81.641" height="44.009" filterUnits="userSpaceOnUse">
      <feOffset dy="10" input="SourceAlpha"/>
      <feGaussianBlur stdDeviation="6.5" result="blur-5"/>
      <feFlood flood-opacity="0.161"/>
      <feComposite operator="in" in2="blur-5"/>
      <feComposite in="SourceGraphic"/>
    </filter>
    <filter id="Path_6" x="125.984" y="101.352" width="167" height="167" filterUnits="userSpaceOnUse">
      <feOffset dy="10" input="SourceAlpha"/>
      <feGaussianBlur stdDeviation="6.5" result="blur-6"/>
      <feFlood flood-opacity="0.161"/>
      <feComposite operator="in" in2="blur-6"/>
      <feComposite in="SourceGraphic"/>
    </filter>
    <filter id="Path_7" x="202.876" y="206.813" width="51.293" height="44.01" filterUnits="userSpaceOnUse">
      <feOffset dy="10" input="SourceAlpha"/>
      <feGaussianBlur stdDeviation="6.5" result="blur-7"/>
      <feFlood flood-opacity="0.161"/>
      <feComposite operator="in" in2="blur-7"/>
      <feComposite in="SourceGraphic"/>
    </filter>
    <filter id="Path_8" x="184.638" y="206.813" width="51.293" height="44.01" filterUnits="userSpaceOnUse">
      <feOffset dy="10" input="SourceAlpha"/>
      <feGaussianBlur stdDeviation="6.5" result="blur-8"/>
      <feFlood flood-opacity="0.161"/>
      <feComposite operator="in" in2="blur-8"/>
      <feComposite in="SourceGraphic"/>
    </filter>
    <filter id="Path_9" x="143.918" y="206.813" width="51.293" height="44.01" filterUnits="userSpaceOnUse">
      <feOffset dy="10" input="SourceAlpha"/>
      <feGaussianBlur stdDeviation="6.5" result="blur-9"/>
      <feFlood flood-opacity="0.161"/>
      <feComposite operator="in" in2="blur-9"/>
      <feComposite in="SourceGraphic"/>
    </filter>
    <filter id="Path_10" x="162.122" y="201.041" width="55.57" height="55.561" filterUnits="userSpaceOnUse">
      <feOffset dy="10" input="SourceAlpha"/>
      <feGaussianBlur stdDeviation="6.5" result="blur-10"/>
      <feFlood flood-opacity="0.161"/>
      <feComposite operator="in" in2="blur-10"/>
      <feComposite in="SourceGraphic"/>
    </filter>
    <filter id="Path_11" x="221.12" y="206.813" width="51.293" height="44.01" filterUnits="userSpaceOnUse">
      <feOffset dy="10" input="SourceAlpha"/>
      <feGaussianBlur stdDeviation="6.5" result="blur-11"/>
      <feFlood flood-opacity="0.161"/>
      <feComposite operator="in" in2="blur-11"/>
      <feComposite in="SourceGraphic"/>
    </filter>
    <filter id="Path_12" x="151.599" y="139.323" width="115.761" height="94.093" filterUnits="userSpaceOnUse">
      <feOffset dy="10" input="SourceAlpha"/>
      <feGaussianBlur stdDeviation="6.5" result="blur-12"/>
      <feFlood flood-opacity="0.161"/>
      <feComposite operator="in" in2="blur-12"/>
      <feComposite in="SourceGraphic"/>
    </filter>
    <filter id="Path_13" x="187.476" y="139.375" width="44.017" height="44.01" filterUnits="userSpaceOnUse">
      <feOffset dy="10" input="SourceAlpha"/>
      <feGaussianBlur stdDeviation="6.5" result="blur-13"/>
      <feFlood flood-opacity="0.161"/>
      <feComposite operator="in" in2="blur-13"/>
      <feComposite in="SourceGraphic"/>
    </filter>
    <filter id="Path_14" x="234.606" y="160.763" width="48.046" height="54.965" filterUnits="userSpaceOnUse">
      <feOffset dy="10" input="SourceAlpha"/>
      <feGaussianBlur stdDeviation="6.5" result="blur-14"/>
      <feFlood flood-opacity="0.161"/>
      <feComposite operator="in" in2="blur-14"/>
      <feComposite in="SourceGraphic"/>
    </filter>
    <filter id="Path_15" x="136.315" y="160.763" width="48.046" height="54.965" filterUnits="userSpaceOnUse">
      <feOffset dy="10" input="SourceAlpha"/>
      <feGaussianBlur stdDeviation="6.5" result="blur-15"/>
      <feFlood flood-opacity="0.161"/>
      <feComposite operator="in" in2="blur-15"/>
      <feComposite in="SourceGraphic"/>
    </filter>
    <filter id="Diamond" x="24.209" y="0" width="370.189" height="370.189" filterUnits="userSpaceOnUse">
      <feOffset dy="10" input="SourceAlpha"/>
      <feGaussianBlur stdDeviation="6.5" result="blur-16"/>
      <feFlood flood-opacity="0.161"/>
      <feComposite operator="in" in2="blur-16"/>
      <feComposite in="SourceGraphic"/>
    </filter>
    <filter id="Line_19" x="282.758" y="197.654" width="136.21" height="136.21" filterUnits="userSpaceOnUse">
      <feOffset dy="10" input="SourceAlpha"/>
      <feGaussianBlur stdDeviation="6.5" result="blur-17"/>
      <feFlood flood-opacity="0.161"/>
      <feComposite operator="in" in2="blur-17"/>
      <feComposite in="SourceGraphic"/>
    </filter>
    <filter id="Line_20" x="0" y="36.326" width="136.21" height="136.21" filterUnits="userSpaceOnUse">
      <feOffset dy="10" input="SourceAlpha"/>
      <feGaussianBlur stdDeviation="6.5" result="blur-18"/>
      <feFlood flood-opacity="0.161"/>
      <feComposite operator="in" in2="blur-18"/>
      <feComposite in="SourceGraphic"/>
    </filter>
    <filter id="Line_21" x="300.105" y="180.306" width="89.373" height="89.373" filterUnits="userSpaceOnUse">
      <feOffset dy="10" input="SourceAlpha"/>
      <feGaussianBlur stdDeviation="6.5" result="blur-19"/>
      <feFlood flood-opacity="0.161"/>
      <feComposite operator="in" in2="blur-19"/>
      <feComposite in="SourceGraphic"/>
    </filter>
    <filter id="Line_22" x="29.49" y="100.51" width="89.373" height="89.373" filterUnits="userSpaceOnUse">
      <feOffset dy="10" input="SourceAlpha"/>
      <feGaussianBlur stdDeviation="6.5" result="blur-20"/>
      <feFlood flood-opacity="0.161"/>
      <feComposite operator="in" in2="blur-20"/>
      <feComposite in="SourceGraphic"/>
    </filter>
    <filter id="Line_24" x="246.329" y="249.695" width="70.291" height="70.291" filterUnits="userSpaceOnUse">
      <feOffset dy="10" input="SourceAlpha"/>
      <feGaussianBlur stdDeviation="6.5" result="blur-21"/>
      <feFlood flood-opacity="0.161"/>
      <feComposite operator="in" in2="blur-21"/>
      <feComposite in="SourceGraphic"/>
    </filter>
    <filter id="Line_25" x="300.105" y="303.471" width="58.148" height="58.148" filterUnits="userSpaceOnUse">
      <feOffset dy="10" input="SourceAlpha"/>
      <feGaussianBlur stdDeviation="6.5" result="blur-22"/>
      <feFlood flood-opacity="0.161"/>
      <feComposite operator="in" in2="blur-22"/>
      <feComposite in="SourceGraphic"/>
    </filter>
    <filter id="Line_26" x="60.715" y="8.57" width="58.148" height="58.148" filterUnits="userSpaceOnUse">
      <feOffset dy="10" input="SourceAlpha"/>
      <feGaussianBlur stdDeviation="6.5" result="blur-23"/>
      <feFlood flood-opacity="0.161"/>
      <feComposite operator="in" in2="blur-23"/>
      <feComposite in="SourceGraphic"/>
    </filter>
    <filter id="Line_27" x="97.144" y="44.999" width="80.699" height="80.699" filterUnits="userSpaceOnUse">
      <feOffset dy="10" input="SourceAlpha"/>
      <feGaussianBlur stdDeviation="6.5" result="blur-24"/>
      <feFlood flood-opacity="0.161"/>
      <feComposite operator="in" in2="blur-24"/>
      <feComposite in="SourceGraphic"/>
    </filter>
  </defs>
  <g id="Gallery_Logo" data-name="Gallery Logo" transform="translate(-750.516 -2210.905)">
    <g id="slider" transform="translate(896 2321.757)">
      <g id="Group_12" data-name="Group 12" transform="translate(108.622 59.411)">
        <g transform="matrix(1, 0, 0, 1, -254.11, -170.26)" filter="url(#Path_1)">
          <path id="Path_1-2" data-name="Path 1" d="M437.14,253.674a2.5,2.5,0,0,1-2.014-3.991l2.941-3.989-2.942-3.995a2.5,2.5,0,1,1,4.034-2.97l4.036,5.481a2.505,2.505,0,0,1,0,2.972l-4.036,5.474A2.5,2.5,0,0,1,437.14,253.674Z" transform="translate(-180.53 -67.45)" fill="#88b06a"/>
        </g>
      </g>
      <g id="Group_13" data-name="Group 13" transform="translate(0)">
        <g transform="matrix(1, 0, 0, 1, -145.48, -110.85)" filter="url(#Path_2)">
          <path id="Path_2-2" data-name="Path 2" d="M380.213,57.619a2.5,2.5,0,1,0,0-5.009H380.2a2.5,2.5,0,1,0,.014,5.009Z" transform="translate(-137.8 71.42)" fill="#88b06a"/>
        </g>
        <g transform="matrix(1, 0, 0, 1, -145.48, -110.85)" filter="url(#Path_3)">
          <path id="Path_3-2" data-name="Path 3" d="M434.2,57.619a2.5,2.5,0,1,0,0-5.009h-.014a2.5,2.5,0,1,0,.014,5.009Z" transform="translate(-178.32 71.42)" fill="#88b06a"/>
        </g>
        <g transform="matrix(1, 0, 0, 1, -145.48, -110.85)" filter="url(#Path_4)">
          <path id="Path_4-2" data-name="Path 4" d="M326.256,57.619a2.5,2.5,0,0,0,0-5.009h-.014a2.5,2.5,0,1,0,.014,5.009Z" transform="translate(-97.33 71.42)" fill="#88b06a"/>
        </g>
        <g transform="matrix(1, 0, 0, 1, -145.48, -110.85)" filter="url(#Path_5)">
          <path id="Path_5-2" data-name="Path 5" d="M62.789,57.619H100.42a2.5,2.5,0,1,0,0-5.009H62.789a2.5,2.5,0,0,0,0,5.009Z" transform="translate(100.3 71.42)" fill="#88b06a"/>
        </g>
        <g transform="matrix(1, 0, 0, 1, -145.48, -110.85)" filter="url(#Path_6)">
          <path id="Path_6-2" data-name="Path 6" d="M119.975,0H8.018A8.025,8.025,0,0,0,0,8.013V119.98A8.028,8.028,0,0,0,8.018,128H119.975A8.032,8.032,0,0,0,128,119.98V8.013A8.028,8.028,0,0,0,119.975,0ZM8.018,5H119.975A3.022,3.022,0,0,1,123,8.013V26.3H5V8.013A3.019,3.019,0,0,1,8.018,5ZM119.975,123H8.018A3.022,3.022,0,0,1,5,119.98V31.3H123V119.98A3.026,3.026,0,0,1,119.975,123Z" transform="translate(145.48 110.85)" fill="#88b06a"/>
        </g>
        <g transform="matrix(1, 0, 0, 1, -145.48, -110.85)" filter="url(#Path_7)">
          <path id="Path_7-2" data-name="Path 7" d="M317.419,422.014h-7.283a2.5,2.5,0,0,0,0,5.01h7.283a2.5,2.5,0,0,0,0-5.01Z" transform="translate(-85.26 -205.7)" fill="#88b06a"/>
        </g>
        <g transform="matrix(1, 0, 0, 1, -145.48, -110.85)" filter="url(#Path_8)">
          <path id="Path_8-2" data-name="Path 8" d="M244.455,422.014h-7.283a2.5,2.5,0,0,0,0,5.01h7.283a2.5,2.5,0,1,0,0-5.01Z" transform="translate(-30.53 -205.7)" fill="#88b06a"/>
        </g>
        <g transform="matrix(1, 0, 0, 1, -145.48, -110.85)" filter="url(#Path_9)">
          <path id="Path_9-2" data-name="Path 9" d="M81.391,422.014H74.108a2.5,2.5,0,0,0,0,5.01h7.283a2.5,2.5,0,0,0,0-5.01Z" transform="translate(91.82 -205.7)" fill="#88b06a"/>
        </g>
        <g transform="matrix(1, 0, 0, 1, -145.48, -110.85)" filter="url(#Path_10)">
          <path id="Path_10-2" data-name="Path 10" d="M152.878,398.969a8.281,8.281,0,1,0,8.289,8.277A8.289,8.289,0,0,0,152.878,398.969Zm0,11.552a3.271,3.271,0,1,1,3.279-3.275A3.277,3.277,0,0,1,152.878,410.521Z" transform="translate(37.03 -188.43)" fill="#88b06a"/>
        </g>
        <g transform="matrix(1, 0, 0, 1, -145.48, -110.85)" filter="url(#Path_11)">
          <path id="Path_11-2" data-name="Path 11" d="M390.412,422.014h-7.283a2.5,2.5,0,0,0,0,5.01h7.283a2.5,2.5,0,0,0,0-5.01Z" transform="translate(-140 -205.7)" fill="#88b06a"/>
        </g>
        <g transform="matrix(1, 0, 0, 1, -145.48, -110.85)" filter="url(#Path_12)">
          <path id="Path_12-2" data-name="Path 12" d="M152.992,207.2h23.54a2.53,2.53,0,0,0,2.5-2.534V154.609a2.5,2.5,0,0,0-2.5-2.5H151.87a2.5,2.5,0,0,0,0,5.009h22.167v39.535L158.8,174.486a2.492,2.492,0,0,0-4.11,0l-9.732,14.152-14.037-20.414a2.492,2.492,0,0,0-4.111,0l-19.545,28.425V157.113H129.43a2.5,2.5,0,0,0,0-5.009H104.767a2.5,2.5,0,0,0-2.5,2.5v50.055a2.529,2.529,0,0,0,2.5,2.533h48.223Zm3.752-26.877,15.035,21.867H154.271l-6.283-9.137Zm-27.88-6.262,19.342,28.129H109.522Z" transform="translate(68.83 -3.28)" fill="#88b06a"/>
        </g>
        <g transform="matrix(1, 0, 0, 1, -145.48, -110.85)" filter="url(#Path_13)">
          <path id="Path_13-2" data-name="Path 13" d="M248.492,157.113h.014a2.512,2.512,0,1,0-.014,0Z" transform="translate(-39.01 -3.23)" fill="#88b06a"/>
        </g>
        <g transform="matrix(1, 0, 0, 1, -145.48, -110.85)" filter="url(#Path_14)">
          <path id="Path_14-2" data-name="Path 14" d="M439.159,238.728a2.5,2.5,0,1,0-4.034,2.97l2.942,3.995-2.941,3.989a2.5,2.5,0,1,0,4.032,2.973l4.036-5.474a2.5,2.5,0,0,0,0-2.972Z" transform="translate(-180.53 -67.45)" fill="#88b06a"/>
        </g>
        <g transform="matrix(1, 0, 0, 1, -145.48, -110.85)" filter="url(#Path_15)">
          <path id="Path_15-2" data-name="Path 15" d="M49.805,249.683l-2.941-3.989,2.942-3.995a2.5,2.5,0,1,0-4.034-2.97l-4.036,5.481a2.5,2.5,0,0,0,0,2.972l4.036,5.474a2.5,2.5,0,1,0,4.032-2.973Z" transform="translate(114.57 -67.45)" fill="#88b06a"/>
        </g>
      </g>
    </g>
    <g id="Icon_Slot" data-name="Icon Slot" transform="translate(808.284 2244.533)">
      <g transform="matrix(1, 0, 0, 1, -57.77, -33.63)" filter="url(#Diamond)">
        <g id="Diamond-2" data-name="Diamond" transform="translate(43.71 175.09) rotate(-45)" fill="none" stroke="#88b06a" stroke-width="5">
          <rect width="234.186" height="234.186" stroke="none"/>
          <rect x="2.5" y="2.5" width="229.186" height="229.186" fill="none"/>
        </g>
      </g>
      <g id="Space" transform="translate(-36.5 13.966)">
        <line id="Space-2" data-name="Space" x2="38.164" y2="38.164" transform="translate(97.144 8.674)" fill="none" stroke="#fff" stroke-width="10"/>
        <line id="Space-3" data-name="Space" x2="93.674" y2="93.674" transform="translate(0)" fill="none" stroke="#fff" stroke-width="10"/>
        <line id="Space-4" data-name="Space" x2="46.837" y2="46.837" transform="translate(29.49 64.184)" fill="none" stroke="#fff" stroke-width="10"/>
        <line id="Spaace" x2="46.837" y2="46.837" transform="translate(300.105 143.981)" fill="none" stroke="#fff" stroke-width="10"/>
        <line id="Space-5" data-name="Space" x2="93.674" y2="93.674" transform="translate(282.758 161.328)" fill="none" stroke="#fff" stroke-width="10"/>
        <line id="Space-6" data-name="Space" x2="27.755" y2="27.755" transform="translate(246.329 213.369)" fill="none" stroke="#fff" stroke-width="10"/>
      </g>
      <g id="lines" transform="translate(-36.5 -13.79)">
        <g transform="matrix(1, 0, 0, 1, -21.27, -19.84)" filter="url(#Line_19)">
          <line id="Line_19-2" data-name="Line 19" x2="93.674" y2="93.674" transform="translate(304.03 208.92)" fill="none" stroke="#88b06a" stroke-width="5"/>
        </g>
        <g transform="matrix(1, 0, 0, 1, -21.27, -19.84)" filter="url(#Line_20)">
          <line id="Line_20-2" data-name="Line 20" x2="93.674" y2="93.674" transform="translate(21.27 47.59)" fill="none" stroke="#88b06a" stroke-width="5"/>
        </g>
        <g transform="matrix(1, 0, 0, 1, -21.27, -19.84)" filter="url(#Line_21)">
          <line id="Line_21-2" data-name="Line 21" x2="46.837" y2="46.837" transform="translate(321.37 191.57)" fill="none" stroke="#88b06a" stroke-width="5"/>
        </g>
        <g transform="matrix(1, 0, 0, 1, -21.27, -19.84)" filter="url(#Line_22)">
          <line id="Line_22-2" data-name="Line 22" x2="46.837" y2="46.837" transform="translate(50.76 111.78)" fill="none" stroke="#88b06a" stroke-width="5"/>
        </g>
        <g transform="matrix(1, 0, 0, 1, -21.27, -19.84)" filter="url(#Line_24)">
          <line id="Line_24-2" data-name="Line 24" x2="27.755" y2="27.755" transform="translate(267.6 260.96)" fill="none" stroke="#88b06a" stroke-width="5"/>
        </g>
        <g transform="matrix(1, 0, 0, 1, -21.27, -19.84)" filter="url(#Line_25)">
          <line id="Line_25-2" data-name="Line 25" x2="15.612" y2="15.612" transform="translate(321.37 314.74)" fill="none" stroke="#88b06a" stroke-width="5"/>
        </g>
        <g transform="matrix(1, 0, 0, 1, -21.27, -19.84)" filter="url(#Line_26)">
          <line id="Line_26-2" data-name="Line 26" x2="15.612" y2="15.612" transform="translate(81.98 19.84)" fill="none" stroke="#88b06a" stroke-width="5"/>
        </g>
        <g transform="matrix(1, 0, 0, 1, -21.27, -19.84)" filter="url(#Line_27)">
          <line id="Line_27-2" data-name="Line 27" x2="38.164" y2="38.164" transform="translate(118.41 56.27)" fill="none" stroke="#88b06a" stroke-width="5"/>
        </g>
      </g>
    </g>
  </g>
</svg>
